<svg xmlns="http://www.w3.org/2000/svg" viewBox="0 0 1536 738" preserveAspectRatio="xMidYMid" width="1536" height="738" xmlns:xlink="http://www.w3.org/1999/xlink" style="shape-rendering:auto;display:block;background-position-x:0%;background-position-y:0%;background-size:auto;background-origin:padding-box;background-clip:border-box;background:scroll rgb(255, 255, 255) none  repeat;width:1536px;height:738px;;animation:none"><g><linearGradient y2="0" y1="0" x2="1" x1="0" id="lg-o578w6yh81n"><stop offset="0" stop-color="#ff00ff"></stop>

  
<stop offset="1" stop-color="#00ffff"></stop></linearGradient>
<path opacity="0.4" fill="url(#lg-o578w6yh81n)" d="M 0 0 L 0 499.39 Q 153.6 479.93 307.2 459.93 T 614.4 351.87 T 921.6 318.22 T 1228.8 368.83 T 1536 292.45 L 1536 0 Z" style="fill:url('#lg-o578w6yh81n');opacity:0.4;;animation:none"></path>
<path opacity="0.4" fill="url(#lg-o578w6yh81n)" d="M 0 0 L 0 461.396 Q 153.6 447.383 307.2 422.559 T 614.4 368.994 T 921.6 301.559 T 1228.8 241.047 T 1536 241.447 L 1536 0 Z" style="fill:url('#lg-o578w6yh81n');opacity:0.4;;animation:none"></path>
<path opacity="0.4" fill="url(#lg-o578w6yh81n)" d="M 0 0 L 0 473.087 Q 153.6 519.364 307.2 495.144 T 614.4 330.484 T 921.6 360.332 T 1228.8 279.413 T 1536 227.832 L 1536 0 Z" style="fill:url('#lg-o578w6yh81n');opacity:0.4;;animation:none"></path>
<path opacity="0.4" fill="url(#lg-o578w6yh81n)" d="M 0 0 L 0 504.84 Q 153.6 437.293 307.2 412.572 T 614.4 431.039 T 921.6 335.932 T 1228.8 365.897 T 1536 288.133 L 1536 0 Z" style="fill:url('#lg-o578w6yh81n');opacity:0.4;;animation:none"></path>
<path opacity="0.4" fill="url(#lg-o578w6yh81n)" d="M 0 0 L 0 528.359 Q 153.6 452.887 307.2 431.539 T 614.4 363.468 T 921.6 373.446 T 1228.8 235.273 T 1536 184.932 L 1536 0 Z" style="fill:url('#lg-o578w6yh81n');opacity:0.4;;animation:none"></path>
<g></g></g><!-- [ldio] generated by https://loading.io --></svg>