<svg xmlns="http://www.w3.org/2000/svg" viewBox="0 0 1536 738" preserveAspectRatio="xMidYMid" width="1536" height="738" xmlns:xlink="http://www.w3.org/1999/xlink" style="shape-rendering:auto;display:block;background-position-x:0%;background-position-y:0%;background-size:auto;background-origin:padding-box;background-clip:border-box;background:scroll rgb(255, 255, 255) none  repeat;width:1536px;height:738px;;animation:none"><g><g><path fill="#05bceb" d="M1536 0L1198.04488996501 0C283.4966741914138 0 7.5325729988580665 738 7.5325729988580665 738 L1536 738 Z" style="fill:rgb(5, 188, 235);;animation:none"></path>
<path fill="rgb(5, 188, 235)" d="M 1536 0 L 1198.04 0 C 283.497 0 7.53257 738 7.53257 738 L 1536 738 Z" style="fill:rgb(5, 188, 235);;animation:none"></path>
<path fill="rgb(11, 169, 216)" d="M 1536 0 L 1284.03 0 C 454.201 0 33.2007 738 33.2007 738 L 1536 738 Z" style="fill:rgb(11, 169, 216);;animation:none"></path>
<path fill="rgb(16, 151, 196)" d="M 1536 0 L 1337.17 0 C 598.398 0 79.0647 738 79.0647 738 L 1536 738 Z" style="fill:rgb(16, 151, 196);;animation:none"></path>
<path fill="rgb(21, 132, 177)" d="M 1536 0 L 1376.19 0 C 727.694 0 146.336 738 146.336 738 L 1536 738 Z" style="fill:rgb(21, 132, 177);;animation:none"></path>
<path fill="rgb(26, 113, 157)" d="M 1536 0 L 1407.25 0 C 846.93 0 235.906 738 235.906 738 L 1536 738 Z" style="fill:rgb(26, 113, 157);;animation:none"></path>
<path fill="rgb(32, 94, 138)" d="M 1536 0 L 1433.14 0 C 958.718 0 348.487 738 348.487 738 L 1536 738 Z" style="fill:rgb(32, 94, 138);;animation:none"></path>
<path fill="rgb(37, 75, 118)" d="M 1536 0 L 1455.4 0 C 1064.67 0 484.678 738 484.678 738 L 1536 738 Z" style="fill:rgb(37, 75, 118);;animation:none"></path>
<path fill="rgb(42, 56, 99)" d="M 1536 0 L 1474.97 0 C 1165.87 0 644.994 738 644.994 738 L 1536 738 Z" style="fill:rgb(42, 56, 99);;animation:none"></path>
<path fill="rgb(47, 38, 79)" d="M 1536 0 L 1492.44 0 C 1263.09 0 829.893 738 829.893 738 L 1536 738 Z" style="fill:rgb(47, 38, 79);;animation:none"></path>
<path fill="rgb(53, 19, 60)" d="M 1536 0 L 1508.25 0 C 1356.9 0 1039.78 738 1039.78 738 L 1536 738 Z" style="fill:rgb(53, 19, 60);;animation:none"></path>
<path fill="rgb(58, 0, 40)" d="M 1536 0 L 1522.69 0 C 1447.75 0 1275.04 738 1275.04 738 L 1536 738 Z" style="fill:rgb(58, 0, 40);;animation:none"></path></g>
<g></g></g><!-- [ldio] generated by https://loading.io --></svg>